Title: Let The Bullets Fly (2010)
Year: 2010
Country: China
Language: Mandarin | Cantonese
Film Genre: Action | Comedy
Original Title: è®“å­å½ˆé£›
Subtitles: Simplified Chinese (Hard subs)
Director: Wen Jiang
Cast: Yun-Fat Chow, Xiaogang Feng, Wen Jiang, Carina Lau, You Ge, Jun Hu
Info Link: http://www.imdb.com/title/tt1533117/


Plot or synopsis
Set in China during the warring 1920s, notorious bandit chief Zhang descends upon a remote provincial town posing as its new mayor, an identity that he had hijacked from Old Tang, himself a small-time imposter. Hell-bent on making a fast buck, Zhang soon meets his match in the tyrannical local gentry Huang as a deadly battle of wit and brutality ensues.


General
Complete name : Let.The.Bullets.Fly.2010.CN.SUBBED.DVDRip.XviD.AC3-BAUM.avi
Format : AVI
Format/Info : Audio Video Interleave
Format profile : OpenDML
File size : 1.57 GiB
Duration : 2h 8mn
Overall bit rate : 1 741 Kbps
Writing application : AVI-Mux GUI 1.17.8.3, Feb 16 201019:42:50

Video #0
ID : 0
Format : MPEG-4 Visual
Format profile : Advanced Simple@L5
Format settings, BVOP : Yes
Format settings, QPel : No
Format settings, GMC : No warppoints
Format settings, Matrix : Default (H.263)
Codec ID : XVID
Codec ID/Hint : XviD
Duration : 2h 8mn
Bit rate : 1 479 Kbps
Width : 720 pixels
Height : 304 pixels
Display aspect ratio : 2.35:1
Frame rate : 23.976 fps
Color space : YUV
Chroma subsampling : 4:2:0
Bit depth : 8 bits
Scan type : Progressive
Bits/(Pixel*Frame) : 0.282
Stream size : 1.33 GiB (85%)
Writing library : XviD 1.2.1 (UTC 2008-12-04)

Audio #1
ID : 1
Format : AC-3
Format/Info : Audio Coding 3
Mode extension : CM (complete main)
Codec ID : 2000
Duration : 2h 8mn
Bit rate mode : Constant
Bit rate : 256 Kbps
Channel(s) : 6 channels
Channel positions : Front: L C R, Side: L R, LFE
Sampling rate : 48.0 KHz
Bit depth : 16 bits
Stream size : 236 MiB (15%)
Alignment : Aligned on interleaves
Interleave, duration : 64 ms (1.53 video frames)
Interleave, preload duration : 192 ms
Title : VTS_01_1 T80 3_2ch 384Kbps DELAY 0ms_new
